<?xml version="1.0" encoding="utf-8"?>
<!-- Generator: Adobe Illustrator 23.0.4, SVG Export Plug-In . SVG Version: 6.00 Build 0)  -->
<svg version="1.1" id="Capa_1" xmlns="http://www.w3.org/2000/svg" xmlns:xlink="http://www.w3.org/1999/xlink" x="0px" y="0px"
	 viewBox="0 0 1991 402" style="enable-background:new 0 0 1991 402;" xml:space="preserve">
<style type="text/css">
	.st0{fill:#FFFFFF;}
</style>
<path class="st0" d="M1122.6,168.3c23.6-25.1,65.3-30.9,94.4-12.3c12.2,7.4,19.4,20.1,26.5,32.1c-48.7,12.6-97.4,24.8-146.3,36.6
	C1100.5,204.2,1107,183,1122.6,168.3z"/>
<path d="M1771.9,0h1.8c3.3,25.4-1,51.6,2.6,76.7c26.7,4.3,55,0.3,82.3,1.7c0,23.8,0,47.6,0,71.3c-27.7,0.3-55.4,0-83.1,0.2
	c0.2,46.8-0.1,93.6,0,140.4c-0.6,12.9,4.8,26.5,16.8,32.6c19.6,10.7,42.9,6.3,64,4.2c5.9,20.9,11.9,41.8,17.8,62.6
	c-46.4,11-99,13.4-141.2-12.3c-29.3-18.4-42.9-53.6-42.4-87.2c-0.7-92.8,0-185.6-0.3-278.4C1717.3,7.2,1746.3,10.7,1771.9,0z"/>
<path d="M485.1,11.8c28.1-2.2,56-6.6,84.2-7.3c-0.2,24.6-0.1,49.2,0,73.9c27.7,0.1,55.4-0.2,83,0.2c-0.3,23.7-0.1,47.5-0.1,71.2
	c-27.7,0-55.3,0-83,0c0.1,46.8-0.1,93.7,0.1,140.5c-0.4,12.4,4.8,25.5,16,31.8c19.6,11.8,43.6,7.2,65,5c5.9,21,12.2,42,17.8,63.1
	c-45.7,10.3-97,13.2-138.8-11.3c-29.3-16.7-44.5-50.9-44.2-83.8C485.1,200.7,485.1,106.3,485.1,11.8z"/>
<path d="M1423.3,100.6c35.2-10.9,69.9-24.2,106.4-29.7c33.5-3.3,70.8,7.3,91.8,35.1c20.1,26.1,25.9,60.1,26.2,92.3
	c-0.1,63.8,0,127.6-0.1,191.3c-27.9,0-55.9-0.2-83.8,0.1c-0.7-62.2,0.1-124.4-0.4-186.6c-1-13.8-2.3-29-11.5-40.1
	c-8.9-9.7-22.8-13-35.6-12.3c-24.5,0-48.2,7.2-71.5,14.1c0,74.9,0.1,149.8,0,224.7c-27.9,0-55.8-0.2-83.7,0.2
	c-0.8-103.8,0-207.5-0.4-311.3c17.7-0.2,35.5-0.3,53.2,0.1C1417,85.9,1420.2,93.3,1423.3,100.6z"/>
<path d="M1070.5,112.3c53.1-51.7,146.7-56.2,203.2-7.8c37.6,33.4,50.9,85.4,52.4,134c-71.3,16.7-142.4,34.7-213.5,52.3
	c11,16.8,28.2,29,48.1,32.4c38.9,7.3,79.3,1.9,116.7-10c6.5,21.4,13.5,42.6,19.5,64.2c-51.9,18.8-109.4,27.8-163.5,13.7
	c-44.5-10.9-83.6-43.3-100.7-86.2C1007.2,241,1019,160.1,1070.5,112.3 M1122.6,168.3c-15.5,14.7-22.1,35.9-25.4,56.4
	c48.9-11.8,97.6-24,146.3-36.6c-7.1-11.9-14.3-24.7-26.5-32.1C1187.8,137.4,1146.2,143.2,1122.6,168.3z"/>
<path d="M698.3,263c0-61.5-0.1-123.1,0-184.6c28,0.1,56,0,84.1,0.1c0,59.8-0.2,119.6,0.1,179.5c0.6,20.1,2.6,46.9,24.3,55.6
	c30.9,9.7,62.8-3,92.9-10c0.3-75,0.1-150,0.1-225c27.7-0.2,55.3,0,83-0.1c0,103.7-0.1,207.4,0.1,311c-17.1,0.2-34.2,0-51.2,0.3
	c-3.7-7.4-7.3-14.8-10.6-22.3c-31.4,10.2-62.8,21.1-95.2,28.1c-36.1,7.3-77.7-3.5-100.9-33.4C702.9,334.3,699,297.3,698.3,263z"/>
<path d="M1904.5,78.5c27.6-0.3,55.2-0.1,82.8-0.1c1.6,72.1,0.2,144.2,0.7,216.4c-0.7,31.6,2,63.4-1.8,94.9
	c-27.1-0.3-54.3-0.1-81.5-0.1C1904.4,285.9,1904.8,182.2,1904.5,78.5z"/>
<g>
	<path d="M329.6,342.4c-0.2,0-0.2,0.1-0.2,0.3c0,0.2,0.1,0.3,0.2,0.3c0.2,0,0.2-0.1,0.2-0.3C329.8,342.5,329.7,342.4,329.6,342.4z"
		/>
	<path d="M396.4,313.6c-0.2-75.3,0-150.6-0.1-225.9c1.2-44.2-38.7-84.2-82.9-83.1c-76.9,0-153.8,0-230.6,0C42.4,3.6,7,36.6,0,75.6
		v253.9c6,35.8,35.3,65.1,70.9,71.6h254.3C366.1,394.1,399.4,355.7,396.4,313.6z M175.7,239.4c-8.9,21.6-19.6,42.4-30.5,63.1
		c-7.4,13.3-28.9,10.6-34.4-3c-5.2-11.5,3.6-22.5,8-32.6c8.6-16,14.4-33.8,25.6-48.3C158,206.2,181.9,222.2,175.7,239.4z
		 M179.3,151.4c-7.6,17.6-34.4,19.7-44.8,3.8c-9.2-12.4-4.2-31.9,9.9-38C164.8,105,191.1,130.9,179.3,151.4z M255.2,306.4
		c-11.8,14-36.9,1.8-34-16c3-9.9,10-17.9,14.2-27.2c21.7-45.2,17.6-101.4-10.1-143.1c-7.7-9.4-3.8-24.4,7.3-29
		c8.6-5.3,19.5-1.2,24.6,7C300.1,158.7,299.2,246.5,255.2,306.4z M328.2,343.1H328v-0.8h0.1V343.1z M328.2,342.2H328V342h0.1V342.2z
		 M328.7,343.4h-0.2l0.1-0.3l-0.3-0.8h0.2l0.2,0.6l0.2-0.6h0.1L328.7,343.4z M329.8,343c-0.1,0.1-0.2,0.1-0.3,0.1
		c-0.1,0-0.2,0-0.3-0.1c-0.1-0.1-0.1-0.2-0.1-0.3c0-0.1,0-0.2,0.1-0.3c0.1-0.1,0.2-0.1,0.3-0.1c0.1,0,0.2,0,0.3,0.1
		c0.1,0.1,0.1,0.2,0.1,0.3C329.9,342.8,329.9,342.9,329.8,343z"/>
</g>
</svg>
