<?xml version="1.0" encoding="utf-8"?>
<!-- Generator: Adobe Illustrator 23.0.4, SVG Export Plug-In . SVG Version: 6.00 Build 0)  -->
<svg version="1.1" id="Capa_1" xmlns="http://www.w3.org/2000/svg" xmlns:xlink="http://www.w3.org/1999/xlink" x="0px" y="0px"
	 viewBox="0 0 2696.1 523.6" style="enable-background:new 0 0 2696.1 523.6;" xml:space="preserve">
<path d="M1771.9,0h1.8c3.3,25.4-1,51.6,2.6,76.7c26.7,4.3,55,0.3,82.3,1.7c0,23.8,0,47.6,0,71.3c-27.7,0.3-55.4,0-83.1,0.2
	c0.2,46.8-0.1,93.6,0,140.4c-0.6,12.9,4.8,26.5,16.8,32.6c19.6,10.7,42.9,6.3,64,4.2c5.9,20.9,11.9,41.8,17.8,62.6
	c-46.4,11-99,13.4-141.2-12.3c-29.3-18.4-42.9-53.6-42.4-87.2c-0.7-92.8,0-185.6-0.3-278.4C1717.3,7.2,1746.3,10.7,1771.9,0z"/>
<path d="M485.1,11.8c28.1-2.2,56-6.6,84.2-7.3c-0.2,24.6-0.1,49.2,0,73.9c27.7,0.1,55.4-0.2,83,0.2c-0.3,23.7-0.1,47.5-0.1,71.2
	c-27.7,0-55.3,0-83,0c0.1,46.8-0.1,93.7,0.1,140.5c-0.4,12.4,4.8,25.5,16,31.8c19.6,11.8,43.6,7.2,65,5c5.9,21,12.2,42,17.8,63.1
	c-45.7,10.3-97,13.2-138.8-11.3c-29.3-16.7-44.5-50.9-44.2-83.8C485.1,200.7,485.1,106.3,485.1,11.8z"/>
<path d="M1423.3,100.6c35.2-10.9,69.9-24.2,106.4-29.7c33.5-3.3,70.8,7.3,91.8,35.1c20.1,26.1,25.9,60.1,26.2,92.3
	c-0.1,63.8,0,127.6-0.1,191.3c-27.9,0-55.9-0.2-83.8,0.1c-0.7-62.2,0.1-124.4-0.4-186.6c-1-13.8-2.3-29-11.5-40.1
	c-8.9-9.7-22.8-13-35.6-12.3c-24.5,0-48.2,7.2-71.5,14.1c0,74.9,0.1,149.8,0,224.7c-27.9,0-55.8-0.2-83.7,0.2
	c-0.8-103.8,0-207.5-0.4-311.3c17.7-0.2,35.5-0.3,53.2,0.1C1417,85.9,1420.2,93.3,1423.3,100.6z"/>
<path d="M1160.7,323.2c-19.9-3.4-37.1-15.6-48.1-32.4c71.1-17.6,142.2-35.6,213.5-52.3c-1.5-48.6-14.8-100.6-52.4-134
	c-56.5-48.4-150.1-43.9-203.2,7.8c-51.5,47.8-63.3,128.7-37.8,192.6c17.1,42.9,56.2,75.3,100.7,86.2c54.1,14.1,111.6,5.1,163.5-13.7
	c-6-21.6-13-42.8-19.5-64.2C1240,325.1,1199.6,330.5,1160.7,323.2z M1122.6,168.3c23.6-25.1,65.2-30.9,94.4-12.3
	c12.2,7.4,19.4,20.2,26.5,32.1c-48.7,12.6-97.4,24.8-146.3,36.6C1100.5,204.2,1107.1,183,1122.6,168.3z"/>
<path d="M698.3,263c0-61.5-0.1-123.1,0-184.6c28,0.1,56,0,84.1,0.1c0,59.8-0.2,119.6,0.1,179.5c0.6,20.1,2.6,46.9,24.3,55.6
	c30.9,9.7,62.8-3,92.9-10c0.3-75,0.1-150,0.1-225c27.7-0.2,55.3,0,83-0.1c0,103.7-0.1,207.4,0.1,311c-17.1,0.2-34.2,0-51.2,0.3
	c-3.7-7.4-7.3-14.8-10.6-22.3c-31.4,10.2-62.8,21.1-95.2,28.1c-36.1,7.3-77.7-3.5-100.9-33.4C702.9,334.3,699,297.3,698.3,263z"/>
<path d="M2315.9,389.5c0.1,0,0.2,0,0.3,0c0-16.1,0-32.2-0.1-48.3c0.1-37.1,0-74.2,0-111.2c0,0,0,0.1-0.1,0.1c0-50.5,0-101,0-151.5
	c-27.7,0.1-55.3-0.1-83,0.1c0,75,0.2,150-0.1,225c-30.1,7-62,19.7-92.9,10c-21.7-8.7-23.7-35.5-24.3-55.6
	c-0.3-59.9-0.1-119.7-0.1-179.5c-28.1-0.1-56.1,0-84.1-0.1c-0.1,61.5,0,123.1,0,184.6c0.7,34.3,4.6,71.3,26.7,99.2
	c23.2,29.9,64.8,40.7,100.9,33.4c24.3-5.3,48.1-12.7,71.7-20.4c0,7.8,0,15.6,0,23.4c0.6,12.9-4.8,26.5-16.8,32.6
	c-19.6,10.7-42.9,6.3-64,4.2c-5.9,20.9-11.9,41.8-17.8,62.6c46.4,11,99,13.4,141.2-12.3c29.3-18.4,42.9-53.6,42.4-87.2
	C2315.8,395.5,2315.9,392.5,2315.9,389.5z"/>
<path d="M1904.5,78.5c27.6-0.3,55.2-0.1,82.8-0.1c1.6,72.1,0.2,144.2,0.7,216.4c-0.7,31.6,2,63.4-1.8,94.9
	c-27.1-0.3-54.3-0.1-81.5-0.1C1904.4,285.9,1904.8,182.2,1904.5,78.5z"/>
<g>
	<path d="M329.6,342.4c-0.2,0-0.2,0.1-0.2,0.3c0,0.2,0.1,0.3,0.2,0.3c0.2,0,0.2-0.1,0.2-0.3C329.8,342.5,329.7,342.4,329.6,342.4z"
		/>
	<path d="M396.4,313.6c-0.2-75.3,0-150.6-0.1-225.9c1.2-44.2-38.7-84.2-82.9-83.1c-76.9,0-153.8,0-230.6,0C42.4,3.6,7,36.6,0,75.6
		v253.9c6,35.8,35.3,65.1,70.9,71.6h254.3C366.1,394.1,399.4,355.7,396.4,313.6z M160.2,177.3c-21.6-8.9-42.4-19.6-63.1-30.5
		c-13.3-7.4-10.6-28.9,3-34.4c11.5-5.2,22.5,3.6,32.6,8c16,8.6,33.8,14.4,48.3,25.6C193.4,159.6,177.4,183.5,160.2,177.3z
		 M248.2,180.9c-17.6-7.6-19.7-34.4-3.8-44.8c12.4-9.2,31.9-4.2,38,9.9C294.6,166.4,268.7,192.7,248.2,180.9z M93.2,256.8
		c-14-11.8-1.8-36.9,16-34c9.9,3,17.9,10,27.2,14.2c45.2,21.7,101.4,17.6,143.1-10.1c9.4-7.7,24.4-3.8,29,7.3
		c5.3,8.6,1.2,19.5-7,24.6C240.9,301.7,153.1,300.8,93.2,256.8z M328.2,343.1H328v-0.8h0.1v0.8H328.2z M328.2,342.2H328V342h0.1v0.2
		H328.2z M328.7,343.4h-0.2l0.1-0.3l-0.3-0.8h0.2l0.2,0.6l0.2-0.6h0.1L328.7,343.4z M329.8,343c-0.1,0.1-0.2,0.1-0.3,0.1
		c-0.1,0-0.2,0-0.3-0.1c-0.1-0.1-0.1-0.2-0.1-0.3c0-0.1,0-0.2,0.1-0.3c0.1-0.1,0.2-0.1,0.3-0.1c0.1,0,0.2,0,0.3,0.1
		c0.1,0.1,0.1,0.2,0.1,0.3S329.9,342.9,329.8,343z"/>
</g>
<g>
	<path d="M2655.9,238c0-2.9,0-5.7-0.1-8.6c-0.1-0.1-0.2-0.2-0.3-0.2c-2.9-45.8-16.8-93.4-52-124.7c-56.5-48.4-150.1-43.9-203.2,7.8
		c-33.5,31.1-50.2,76.3-50.7,121.7c0,0,0,0,0,0c0,0.2,0,0.5,0,0.7c-0.1,9.7,0.6,19.4,2,28.9c0.2,0,0.3,0.1,0.5,0.1
		c5.4,39.2,19.9,77.6,49.9,104.3c56.5,48.4,150.1,43.9,203.2-7.8c33.5-31.1,50.2-76.3,50.8-121.7c0,0,0,0,0,0
		C2656,238.3,2656,238.2,2655.9,238z M2553.1,304.2c-23.6,25.1-65.2,30.9-94.4,12.3c-4-2.4-7.5-5.5-10.6-8.8v0
		c-46.9-40.2-11.9-115.8-11.9-115.8l0,0c3.9-8.8,9.1-16.8,16.2-23.6c23.6-25.1,65.2-30.9,94.4-12.3c7,4.2,12.3,10.3,17,16.9
		c32.4,41.8,10.8,92.7,10.8,92.7C2570.6,280,2564.1,293.7,2553.1,304.2z"/>
</g>
</svg>
