<?xml version="1.0" encoding="utf-8"?>
<!-- Generator: Adobe Illustrator 23.0.4, SVG Export Plug-In . SVG Version: 6.00 Build 0)  -->
<svg version="1.1" id="Capa_1" xmlns="http://www.w3.org/2000/svg" xmlns:xlink="http://www.w3.org/1999/xlink" x="0px" y="0px"
	 viewBox="0 0 78.57 75.81" style="enable-background:new 0 0 78.57 75.81;" xml:space="preserve">
<g id="kOo3Bp.tif">
	<g>
		<path d="M38.15,67.4c-1.16-0.15-2.33-0.27-3.48-0.47c-7.05-1.22-12.92-4.61-17.66-9.91c-1.19-1.33-2.15-2.86-3.19-4.31
			c-0.35-0.48-0.41-1.03-0.15-1.59c2.66-5.59,6.98-9.17,12.97-10.72c0.48-0.13,0.98-0.17,1.47-0.29c1.06-0.26,1.9,0.18,2.73,0.76
			c2.99,2.05,6.32,2.96,9.93,2.8c2.82-0.12,5.53-0.82,7.82-2.46c1.61-1.15,3.15-1.25,4.94-0.78c4.26,1.13,7.79,3.36,10.46,6.86
			c0.88,1.15,1.55,2.46,2.3,3.71c0.31,0.51,0.23,1-0.09,1.51c-3,4.86-6.97,8.7-12.02,11.37c-3.33,1.76-6.87,2.87-10.62,3.28
			c-0.57,0.06-1.14,0.15-1.71,0.23C40.61,67.4,39.38,67.4,38.15,67.4z"/>
		<path d="M55.38,23.55c-0.07,8.62-7,15.47-15.58,15.4c-8.41-0.07-15.25-7.11-15.17-15.63c0.08-8.36,7.12-15.21,15.55-15.12
			C48.54,8.28,55.45,15.25,55.38,23.55z"/>
	</g>
</g>
</svg>
