<?xml version="1.0" encoding="utf-8"?>
<!-- Generator: Adobe Illustrator 23.0.4, SVG Export Plug-In . SVG Version: 6.00 Build 0)  -->
<svg version="1.1" id="Layer_1" xmlns="http://www.w3.org/2000/svg" xmlns:xlink="http://www.w3.org/1999/xlink" x="0px" y="0px"
	 viewBox="0 0 490 490" style="enable-background:new 0 0 490 490;" xml:space="preserve">
<style type="text/css">
	.st0{fill:#7DAE47;}
</style>
<g>
	<g>
		<path class="st0" d="M117,220H9.9c-5.5,0-9.9,4.4-9.9,9.9v248c0,5.5,4.4,9.9,9.9,9.9H117c5.5,0,9.9-4.4,9.9-9.9v-248
			C126.9,224.4,122.5,220,117,220z"/>
		<path class="st0" d="M298.6,2.2H191.4c-5.5,0-9.9,4.4-9.9,9.9v465.7c0,5.5,4.4,9.9,9.9,9.9h107.2c5.5,0,9.9-4.4,9.9-9.9V12.1
			C308.5,6.7,304.1,2.2,298.6,2.2z"/>
		<path class="st0" d="M480.1,487.8c5.5,0,9.9-4.4,9.9-9.9V162.6c0-5.5-4.4-9.9-9.9-9.9H373c-5.5,0-9.9,4.4-9.9,9.9v315.2
			c0,5.5,4.4,9.9,9.9,9.9h107.1V487.8z"/>
	</g>
</g>
</svg>
